<svg xmlns="http://www.w3.org/2000/svg" width="48" height="48" viewBox="0 0 48 48">
    <path fill="#27358C" fill-rule="evenodd" d="M31.006 23.736a7.425 7.425 0 1 1 .001-14.85 7.425 7.425 0 0 1 0 14.85zm1.615 15.432a.277.277 0 0 1-.277.277H29.67a.277.277 0 0 1-.277-.277V25.762c0-.153.124-.277.277-.277h2.675c.153 0 .277.124.277.277v13.406zM25.57 25.952l-5.457 8.98a.568.568 0 0 0-.083.295v3.933a.283.283 0 0 1-.283.285h-2.689a.283.283 0 0 1-.283-.285v-3.933a.568.568 0 0 0-.082-.295l-5.458-8.98a.283.283 0 0 1 .242-.43h3.097c.11 0 .212.058.27.153l3.45 5.911c.048.084.169.084.218 0l3.45-5.911a.316.316 0 0 1 .27-.152h3.097c.22 0 .356.24.241.429zm-14.383-5.264a.28.28 0 0 1 .084-.2l8.106-8.238a.035.035 0 0 0-.025-.06h-7.638a.283.283 0 0 1-.283-.283V9.636c0-.157.127-.283.283-.283h11.382c.156 0 .283.126.283.283v2.339a.28.28 0 0 1-.086.202l-8.072 8.235a.035.035 0 0 0 .025.06h8.057c.156 0 .283.127.283.283v2.256a.283.283 0 0 1-.283.283H11.469a.283.283 0 0 1-.283-.283v-2.323zM46.702 0C47.42 0 48 .581 48 1.298v45.404C48 47.42 47.419 48 46.702 48H1.298A1.298 1.298 0 0 1 0 46.702V1.298C0 .58.581 0 1.298 0h45.404zM31.135 11.676a4.54 4.54 0 1 0 0 9.08 4.54 4.54 0 0 0 0-9.08z"/>
</svg>
